<?xml version="1.0" standalone="no"?>
<!DOCTYPE svg PUBLIC "-//W3C//DTD SVG 20010904//EN"
 "http://www.w3.org/TR/2001/REC-SVG-20010904/DTD/svg10.dtd">
<svg version="1.0" xmlns="http://www.w3.org/2000/svg"
 width="260.000000pt" height="300.000000pt" viewBox="0 0 260.000000 300.000000"
 preserveAspectRatio="xMidYMid meet">
<metadata>
Created by potrace 1.10, written by Peter Selinger 2001-2011
</metadata>
<g transform="translate(0.000000,300.000000) scale(0.100000,-0.100000)"
fill="#000000" stroke="none">
<path d="M495 2861 c-119 -29 -274 -150 -329 -259 -32 -63 -24 -135 18 -164
21 -14 95 -8 141 12 26 11 50 20 55 20 10 0 225 -258 225 -271 0 -4 -23 -32
-51 -61 -98 -103 -146 -198 -131 -259 8 -31 49 -55 90 -50 37 4 126 42 169 72
27 19 32 20 39 7 9 -16 576 -698 588 -708 3 -3 35 -41 71 -85 35 -44 92 -112
125 -151 90 -105 130 -154 133 -165 5 -13 50 -10 95 5 l37 14 83 -102 c69 -86
86 -100 107 -98 14 2 31 9 38 14 7 6 14 9 16 7 89 -111 400 -479 404 -479 4 1
18 10 31 20 26 22 27 18 -29 84 -14 17 -41 48 -61 70 -94 107 -289 346 -289
354 0 5 7 15 15 22 8 7 15 18 15 24 0 6 -38 56 -84 111 l-84 100 22 30 c32 42
57 93 48 97 -4 2 -54 59 -112 128 -57 69 -114 136 -126 150 -13 14 -71 84
-130 155 -60 72 -113 135 -119 141 -5 6 -25 29 -43 52 -19 23 -42 50 -52 62
-10 12 -33 40 -52 63 -18 23 -51 62 -74 87 -22 25 -87 100 -143 168 l-103 123
30 33 c80 91 117 170 101 214 -11 30 -68 54 -111 45 -66 -13 -211 -88 -266
-137 l-24 -21 -20 25 c-39 48 -114 134 -163 188 -53 58 -62 72 -47 72 16 0 70
92 77 131 14 78 -47 129 -130 110z m80 -46 c27 -26 37 -87 11 -63 -8 7 -12 17
-9 21 7 11 -49 52 -67 49 -13 -2 -13 -2 0 7 23 16 39 13 65 -14z m-102 3 c-13
-6 -23 -15 -23 -20 0 -12 -28 -10 -36 4 -4 6 -3 9 2 5 5 -3 20 1 34 9 14 7 30
13 35 13 6 0 0 -5 -12 -11z m-69 -43 c-4 -8 -8 -15 -10 -15 -2 0 -4 7 -4 15 0
8 4 15 10 15 5 0 7 -7 4 -15z m144 -12 c2 -12 -9 -40 -24 -63 l-28 -42 -21 26
-20 25 -53 -29 c-29 -17 -63 -47 -78 -70 l-26 -39 21 -22 21 -23 -32 -13 c-83
-35 -111 9 -58 90 84 126 287 236 298 160z m-174 -2 c3 -4 -6 -13 -19 -19 -28
-13 -31 -9 -12 13 14 17 24 18 31 6z m203 -47 c-5 -36 -17 -59 -17 -33 0 11
-2 11 -10 -1 -5 -8 -10 -10 -10 -4 0 6 7 17 15 24 8 7 15 21 15 31 0 11 3 19
6 19 3 0 3 -16 1 -36z m-266 8 c-5 -10 -18 -25 -27 -33 -16 -12 -17 -12 -9 1
10 18 37 50 42 50 2 0 -1 -8 -6 -18z m179 -85 c0 -4 5 -5 10 -2 6 3 10 -1 10
-9 0 -9 4 -16 10 -16 5 0 6 -7 3 -17 -4 -11 -3 -14 5 -9 7 4 12 3 12 -2 0 -21
-26 -17 -50 7 -14 13 -19 21 -12 17 6 -4 12 -5 12 -1 0 3 -12 10 -27 16 -30
11 -77 4 -68 -11 3 -6 -1 -7 -10 -3 -16 5 -16 4 -1 -24 8 -17 12 -33 9 -37 -4
-3 -2 -6 3 -6 5 0 18 -16 28 -35 10 -19 28 -37 38 -41 11 -3 17 -11 15 -17 -6
-19 -25 -19 -31 0 -8 25 -60 55 -83 47 -16 -6 -16 -5 2 10 20 16 20 16 0 9
-18 -6 -18 -5 -6 10 9 12 10 17 2 17 -6 0 -15 10 -20 21 -6 17 0 29 25 55 47
47 62 53 95 40 16 -6 29 -14 29 -19z m-264 -19 c-13 -18 -16 -19 -16 -5 0 9 5
17 10 17 6 0 10 8 11 18 0 10 3 12 6 5 2 -7 -3 -23 -11 -35z m316 35 c-6 -2
-10 -9 -7 -13 3 -5 2 -11 -3 -14 -4 -2 -9 4 -9 15 -1 12 4 19 15 18 11 0 12
-2 4 -6z m25 -195 c70 -84 131 -156 137 -160 10 -7 -10 -38 -25 -38 -4 0 -66
69 -136 153 -70 83 -132 155 -138 160 -6 5 -3 13 9 22 11 8 21 15 22 15 2 0
61 -69 131 -152z m-373 89 c-4 -24 0 -38 15 -54 25 -26 26 -33 6 -33 -8 0 -22
11 -30 24 -13 19 -14 32 -7 60 6 19 7 38 4 42 -4 4 -2 4 5 0 7 -4 10 -19 7
-39z m388 -25 c19 -20 32 -44 30 -51 -3 -8 0 -11 7 -7 6 4 17 1 24 -6 15 -14
12 -38 -4 -38 -6 0 -7 5 -3 12 5 8 2 9 -9 5 -9 -3 -16 -3 -15 1 4 15 -24 52
-34 46 -7 -4 -8 -3 -4 4 4 7 2 12 -4 12 -6 0 -15 11 -22 25 -6 13 -15 22 -21
18 -6 -3 -7 -1 -3 5 11 19 20 15 58 -26z m510 -63 c11 -6 18 -7 15 -2 -4 5 1
10 9 10 9 0 13 -6 9 -15 -5 -13 -3 -13 12 -1 16 13 16 11 -1 -16 -10 -16 -13
-24 -5 -17 23 21 32 13 14 -14 -9 -15 -12 -23 -6 -20 6 4 11 1 11 -6 0 -7 -9
-19 -20 -26 -11 -7 -20 -17 -20 -23 0 -6 -7 -17 -15 -25 -20 -20 -21 3 -1 25
20 22 31 71 16 71 -6 0 -9 4 -6 9 7 11 -17 21 -50 21 -14 0 -22 -4 -19 -10 3
-5 0 -7 -8 -4 -8 3 -22 -2 -30 -11 -9 -9 -19 -15 -22 -14 -11 3 -105 -52 -105
-62 0 -5 -5 -9 -12 -9 -6 0 -22 -10 -35 -22 -13 -12 -23 -16 -23 -10 0 7 -5
12 -11 12 -5 0 -8 -4 -4 -9 3 -6 -7 -18 -21 -28 -15 -10 -52 -44 -83 -75 -31
-32 -62 -58 -69 -58 -11 0 -16 -13 -13 -33 0 -4 -4 -6 -11 -5 -6 2 -17 -7 -23
-19 -7 -13 -15 -20 -18 -16 -6 6 -11 -11 -8 -29 0 -5 -3 -8 -9 -8 -5 0 -10 -7
-10 -15 0 -8 -5 -15 -11 -15 -6 0 -9 -6 -6 -14 3 -7 -1 -23 -9 -35 -14 -19
-14 -22 0 -27 9 -3 13 -10 10 -15 -3 -5 0 -9 5 -9 6 0 11 -8 11 -17 0 -12 -8
-18 -24 -19 -18 -1 -23 2 -19 14 4 10 2 13 -5 8 -7 -4 -13 -1 -13 8 -4 50 -3
76 3 76 3 0 10 12 16 28 5 15 20 39 33 54 60 67 73 84 71 91 -1 4 2 7 7 7 5 0
19 13 30 29 19 26 19 32 8 60 -7 17 -16 28 -20 24 -4 -3 -7 1 -7 11 0 10 -5
14 -12 10 -6 -4 -8 -3 -4 4 6 11 -30 52 -46 52 -5 0 -6 5 -3 11 4 6 -2 13 -13
16 -11 2 -25 16 -31 29 -6 13 -15 24 -21 24 -6 0 -8 5 -5 10 3 6 14 10 23 10
15 0 15 -2 2 -10 -12 -8 -11 -10 8 -10 12 0 21 -4 20 -9 -2 -5 2 -9 7 -9 6 -1
12 -10 15 -22 3 -12 10 -22 15 -23 6 0 23 -18 38 -39 17 -24 32 -36 40 -32 7
4 9 4 5 -1 -7 -8 28 -45 42 -45 3 0 17 11 29 24 21 22 22 29 12 56 -6 17 -24
44 -41 60 -19 18 -28 34 -24 44 8 20 24 21 24 1 0 -8 9 -20 20 -27 11 -7 20
-20 20 -30 0 -9 5 -20 12 -24 7 -5 8 -3 3 7 -5 7 3 4 19 -8 23 -19 31 -20 49
-10 27 15 44 28 68 50 10 9 23 17 28 17 5 0 28 12 50 27 23 15 51 28 64 30 12
2 26 8 31 13 13 13 23 13 48 -1z m-2 -65 c0 -12 -25 -51 -58 -92 -30 -36 -37
-41 -44 -27 -12 21 -34 14 -132 -44 -78 -46 -134 -99 -190 -180 -25 -35 -28
-46 -18 -61 10 -16 6 -22 -34 -45 -57 -33 -100 -38 -96 -11 6 34 67 119 133
185 79 80 252 210 333 250 55 28 106 40 106 25z m-22 -131 c-6 -7 -15 -10 -21
-6 -6 3 -7 1 -3 -6 4 -6 0 -18 -8 -26 -9 -9 -12 -23 -9 -33 13 -34 35 -62 46
-55 6 3 7 1 3 -5 -4 -7 -2 -12 5 -12 6 0 9 -8 6 -19 -4 -15 0 -19 15 -16 12 3
18 2 15 -1 -3 -3 3 -16 14 -28 81 -86 109 -121 109 -132 0 -8 7 -14 16 -14 8
0 13 -4 9 -9 -3 -6 4 -15 15 -21 11 -6 20 -15 20 -21 0 -5 12 -22 28 -37 15
-15 41 -46 58 -69 17 -24 34 -39 38 -35 4 4 6 2 4 -3 -4 -13 47 -75 61 -75 6
0 11 -6 11 -14 0 -7 14 -29 31 -47 18 -19 26 -25 18 -14 -13 18 -13 19 4 6 14
-11 15 -16 5 -29 -7 -9 -8 -13 -3 -10 13 8 49 -18 41 -30 -3 -5 4 -12 16 -15
12 -4 19 -9 16 -12 -3 -4 4 -16 16 -29 11 -12 27 -31 34 -42 7 -10 10 -13 6
-5 -5 9 -3 12 4 7 6 -4 8 -14 5 -23 -5 -12 -3 -14 8 -8 8 4 11 5 7 0 -4 -4 3
-16 17 -27 14 -11 22 -26 20 -38 -3 -14 1 -18 16 -15 10 2 19 1 19 -3 0 -4 10
-18 23 -32 20 -22 24 -35 19 -63 -2 -10 -32 18 -32 29 0 4 -18 24 -41 45 -22
20 -42 41 -42 45 -1 5 -5 8 -9 7 -5 -2 -8 6 -8 17 0 12 -10 25 -25 32 -14 6
-25 16 -25 22 -1 6 -14 27 -30 46 -17 19 -30 40 -30 48 0 7 -4 11 -9 8 -5 -3
-16 5 -24 18 -9 12 -30 38 -49 56 -18 19 -26 30 -18 25 8 -5 4 5 -10 22 -14
17 -33 34 -44 36 -10 3 -16 12 -14 19 6 14 -16 40 -26 31 -3 -4 -6 1 -6 10 0
10 -5 17 -11 17 -6 0 -9 7 -6 14 4 11 1 13 -10 9 -11 -4 -14 -2 -9 5 4 7 1 12
-8 12 -8 0 -20 9 -26 20 -6 11 -8 20 -5 20 3 0 -5 11 -19 25 -14 14 -30 25
-36 25 -5 0 -9 3 -8 8 3 15 -15 42 -28 42 -17 0 -18 17 -1 23 8 4 7 6 -3 6 -8
1 -33 20 -54 43 -22 22 -34 38 -28 34 8 -5 10 -2 6 8 -3 9 -10 14 -14 11 -4
-3 -21 12 -36 32 -16 20 -41 49 -56 65 -16 16 -28 32 -28 36 0 13 -38 41 -46
34 -5 -4 -2 1 5 11 7 9 10 17 5 17 -10 0 -76 -39 -84 -49 -3 -3 -22 -15 -42
-25 -21 -11 -38 -25 -38 -33 0 -7 -6 -13 -13 -13 -13 0 -42 -28 -44 -44 -1 -5
-8 -13 -17 -18 -9 -5 -16 -20 -16 -34 0 -15 4 -23 10 -19 6 4 19 -13 30 -37
11 -24 20 -39 20 -34 0 5 9 1 20 -9 11 -10 17 -21 15 -26 -3 -4 0 -11 6 -15 8
-5 9 -3 4 6 -5 9 -4 11 3 6 7 -4 12 -14 12 -22 0 -8 5 -13 11 -12 6 2 13 -5
14 -16 2 -10 13 -25 24 -33 12 -8 21 -19 21 -25 0 -6 12 -21 28 -34 15 -13 27
-30 27 -36 0 -7 8 -13 17 -13 9 0 20 -4 25 -9 5 -5 2 -6 -7 -1 -13 7 -13 6 -2
-7 21 -26 50 -29 55 -6 3 11 10 17 16 13 14 -8 14 -35 1 -35 -5 0 -10 -13 -10
-30 0 -16 5 -30 11 -30 5 0 7 -4 4 -10 -3 -5 -2 -10 4 -10 5 0 13 -9 16 -20 4
-11 10 -18 14 -15 5 2 17 -5 27 -17 12 -14 14 -19 4 -13 -8 4 -6 -1 5 -12 19
-19 20 -19 47 9 15 15 32 28 38 28 19 0 10 -28 -15 -44 -39 -25 -35 -36 41
-119 23 -24 50 -31 64 -17 3 3 15 10 27 17 17 10 22 9 27 -2 3 -8 2 -15 -3
-15 -4 0 -20 -11 -35 -25 l-27 -25 33 -31 c18 -18 26 -28 18 -24 -8 5 3 -10
25 -33 41 -42 69 -47 88 -16 13 22 37 16 37 -8 0 -19 -2 -20 -10 -8 -9 14 -14
7 -11 -13 1 -5 -3 -6 -8 -3 -17 11 -20 -23 -5 -52 8 -17 29 -46 47 -66 34 -36
62 -41 92 -16 18 15 14 -5 -7 -46 -16 -29 -15 -31 3 -42 11 -7 17 -17 14 -22
-3 -6 -2 -10 4 -10 6 0 21 -10 35 -23 41 -38 56 -48 56 -39 0 5 18 17 39 28
22 10 38 22 36 25 -3 3 9 5 25 4 16 -1 27 2 24 7 -4 5 3 18 15 29 12 11 21 24
21 30 0 6 5 7 10 4 6 -4 9 -3 8 2 -1 4 3 18 10 30 15 27 26 105 12 83 -9 -15
-11 -14 -14 13 -1 6 -8 11 -15 9 -7 -1 -10 2 -6 7 7 12 -30 52 -39 44 -10 -10
-6 31 4 47 9 14 11 13 14 -11 0 -6 10 -17 20 -25 11 -8 16 -14 12 -14 -5 0 6
-15 25 -34 55 -55 56 -56 50 -95 0 -5 -16 -24 -33 -42 -18 -18 -28 -30 -22
-27 6 4 9 -5 8 -24 -2 -22 3 -32 17 -35 10 -3 17 -9 14 -13 -2 -4 14 -27 38
-50 23 -24 35 -40 27 -36 -8 4 -5 -1 8 -10 12 -9 22 -23 22 -31 0 -8 4 -11 10
-8 15 9 8 -48 -8 -60 -10 -8 -5 -18 23 -49 19 -21 35 -40 35 -42 0 -1 -9 -2
-19 -1 -11 0 -18 4 -16 7 2 4 -12 22 -33 41 -20 19 -33 30 -29 25 4 -6 -5 -15
-20 -21 -24 -10 -30 -8 -45 9 -10 12 -17 17 -18 12 0 -5 -14 11 -32 35 -17 24
-44 58 -59 74 -16 17 -36 39 -44 50 -9 11 -14 14 -10 8 3 -7 1 -13 -4 -13 -6
0 -11 5 -11 11 0 8 -5 8 -15 -1 -8 -7 -15 -9 -15 -5 0 4 -7 2 -15 -5 -16 -14
-65 -6 -65 11 0 6 -4 8 -8 5 -5 -3 -17 9 -27 27 -11 18 -34 47 -52 66 -18 19
-33 38 -33 43 0 5 -5 6 -10 3 -6 -4 -10 -3 -9 2 3 11 -23 63 -32 63 -12 0
-149 167 -142 174 4 3 1 6 -5 6 -12 0 -28 14 -62 59 -14 18 -38 47 -55 65 -48
54 -69 81 -67 86 1 3 -4 5 -10 5 -7 0 -13 8 -13 18 0 10 -6 22 -14 26 -7 5
-11 14 -7 20 4 7 1 9 -8 5 -9 -3 -21 5 -33 22 -10 16 -29 40 -43 55 -61 65
-100 110 -100 118 0 4 -10 17 -22 29 -32 29 -50 52 -42 52 4 0 -5 9 -20 21
-14 11 -26 27 -26 35 0 8 -5 12 -10 9 -6 -4 -9 -2 -8 3 4 11 -70 79 -94 88
-13 4 -18 16 -18 42 1 37 21 77 33 65 6 -6 11 12 8 30 0 4 4 7 9 7 6 0 10 7
10 15 0 8 5 15 12 15 6 0 27 16 45 36 18 20 33 33 33 29 0 -5 12 2 27 16 14
13 22 17 18 9 -7 -12 -5 -12 11 1 30 25 83 48 89 39 10 -16 50 -1 69 25 14 17
22 21 27 13 4 -7 3 -18 -3 -25z m-105 -86 c4 -12 500 -609 830 -1001 37 -45
76 -91 87 -104 18 -22 18 -22 -19 -70 -45 -56 -51 -61 -115 -97 l-50 -27 -45
48 c-28 31 -39 50 -31 52 7 3 25 16 41 31 l29 26 -26 29 c-14 16 -29 25 -32
20 -4 -5 -21 -19 -38 -31 l-32 -22 -38 46 c-22 25 -40 51 -42 57 -1 6 13 20
33 30 19 11 35 23 35 28 0 4 -12 22 -27 38 l-27 30 -33 -32 -34 -33 -27 31
c-72 80 -70 70 -29 107 l37 32 -25 28 c-28 32 -22 33 -91 -18 -10 -7 -18 -3
-30 14 -10 13 -25 31 -36 40 -25 22 -22 32 16 61 35 26 35 31 1 75 -16 20 -17
19 -51 -18 -20 -21 -37 -37 -38 -35 0 2 -21 27 -45 57 l-45 54 38 34 c33 30
35 35 22 49 -9 8 -20 23 -25 32 -9 15 -14 13 -47 -19 l-36 -37 -139 167 c-76
91 -139 169 -139 173 0 15 82 90 141 128 68 44 75 46 82 27z m-303 -255 c-14
-9 -28 -16 -32 -14 -5 1 -8 -2 -8 -7 0 -5 -7 -12 -16 -15 -15 -6 -15 -4 -1 16
8 13 20 22 26 21 6 -2 16 6 23 17 8 13 16 16 22 10 7 -7 2 -16 -14 -28z m-81
-46 c-12 -10 -49 -16 -49 -7 0 5 10 11 23 13 22 4 34 1 26 -6z m516 -176 c-3
-5 -12 -10 -18 -10 -7 0 -6 4 3 10 19 12 23 12 15 0z m549 -665 c-4 -8 -8 -15
-10 -15 -2 0 -4 7 -4 15 0 8 4 15 10 15 5 0 7 -7 4 -15z m493 -475 c-1 -5 7
-16 18 -24 12 -10 15 -15 6 -14 -17 3 -61 47 -61 60 0 5 9 4 20 -2 11 -6 19
-15 17 -20z m59 -75 c23 -36 14 -38 -14 -4 -13 16 -19 29 -13 29 6 0 18 -11
27 -25z m67 -76 c6 -21 6 -21 -19 2 -29 27 -32 44 -5 30 10 -6 21 -20 24 -32z
m23 -27 c-7 -11 30 -42 40 -34 4 4 4 1 0 -6 -4 -6 0 -19 9 -28 9 -9 13 -19 10
-22 -3 -3 -12 4 -21 17 -9 12 -25 30 -36 41 -17 16 -18 40 -2 40 3 0 3 -4 0
-8z m95 -119 c11 -10 27 -31 36 -48 l15 -30 -23 25 c-13 14 -34 35 -46 48 -26
26 -13 30 18 5z"/>
<path d="M727 1964 c4 -12 3 -15 -5 -10 -16 10 -15 1 1 -12 10 -8 13 -6 14 8
1 11 -2 22 -8 25 -5 4 -6 -2 -2 -11z"/>
<path d="M1943 1039 c-2 -23 3 -25 10 -4 4 8 3 16 -1 19 -4 3 -9 -4 -9 -15z"/>
<path d="M1845 890 c-10 -11 -23 -17 -28 -13 -6 4 -1 -11 12 -33 l23 -39 -27
25 c-26 23 -27 24 -14 3 8 -13 17 -23 20 -23 9 0 51 -38 47 -43 -2 -3 1 -9 6
-14 5 -5 6 -3 2 5 -4 6 -2 12 3 12 6 0 11 -8 11 -19 0 -10 12 -27 26 -37 14
-10 32 -25 40 -32 11 -10 17 -9 36 10 37 37 34 62 -13 98 -28 23 -39 38 -36
51 3 11 1 17 -3 14 -5 -3 -16 5 -24 17 -9 13 -16 17 -16 9 0 -9 -7 -6 -19 7
-22 27 -24 27 -46 2z m61 -47 c16 -21 44 -54 63 -75 19 -22 31 -44 27 -53 -8
-23 -21 -18 -50 19 -14 19 -31 41 -38 48 -7 8 -26 29 -43 47 -25 27 -27 33
-15 41 22 14 24 13 56 -27z"/>
<path d="M917 2130 c3 -11 9 -18 13 -15 5 3 11 -4 15 -15 3 -11 15 -25 26 -30
10 -6 19 -15 19 -21 0 -6 -5 -7 -12 -3 -7 4 -8 3 -4 -5 4 -6 11 -9 15 -7 12 8
63 -53 55 -65 -4 -8 -3 -9 5 -5 6 4 14 0 18 -11 4 -10 21 -32 37 -48 55 -54
75 -82 65 -94 -6 -8 -5 -8 2 -2 8 7 21 -3 42 -31 36 -50 97 -108 115 -108 26
0 5 -53 -36 -87 -18 -15 -22 -23 -12 -23 20 0 67 51 75 82 7 26 -16 55 -35 43
-5 -3 -10 -3 -10 2 0 4 -17 26 -38 49 -20 23 -53 61 -72 84 -41 51 -93 113
-100 120 -3 3 -30 34 -60 70 -30 36 -67 79 -82 95 -15 17 -28 33 -28 38 0 4
-4 7 -9 7 -5 0 -7 -9 -4 -20z"/>
<path d="M860 2113 c0 -7 39 -59 71 -94 25 -27 37 -42 109 -129 25 -30 47 -57
51 -60 3 -3 35 -39 70 -80 35 -41 67 -76 71 -78 12 -6 9 -22 -6 -38 -13 -12
-18 -10 -40 18 -14 18 -28 29 -32 25 -4 -4 2 -18 14 -30 12 -13 20 -26 17 -29
-3 -2 11 -5 30 -5 19 0 33 3 30 5 -3 3 0 11 6 19 9 9 8 17 0 27 -6 7 -9 22 -5
32 4 14 3 15 -4 5 -7 -9 -12 -10 -16 -2 -4 6 -5 11 -2 11 3 0 -2 8 -11 18 -10
11 -21 17 -25 15 -7 -4 -12 12 -9 30 0 4 -3 6 -7 5 -11 -4 -63 51 -104 109
-17 24 -36 43 -41 43 -5 0 -7 7 -3 15 3 8 1 14 -3 12 -12 -3 -91 84 -91 101 0
6 -7 12 -15 12 -13 0 -19 11 -17 31 1 4 -8 9 -18 12 -11 3 -20 3 -20 0z"/>
<path d="M810 2072 c0 -5 7 -12 15 -16 8 -3 15 -10 15 -16 0 -6 -5 -8 -12 -4
-7 5 -8 3 -4 -5 5 -7 10 -10 13 -8 2 3 20 -11 38 -30 29 -30 33 -39 24 -55
-11 -20 -11 -20 -30 1 -11 12 -17 26 -13 33 5 7 3 8 -5 3 -12 -7 -49 32 -44
46 1 3 -5 6 -13 6 -7 0 -14 -2 -14 -5 0 -6 36 -50 98 -121 32 -35 64 -74 72
-85 25 -37 80 -91 80 -80 0 6 -31 48 -70 93 -61 72 -68 85 -57 101 11 19 25
11 25 -14 1 -5 11 -14 24 -20 13 -7 22 -20 22 -29 -1 -9 2 -15 6 -12 11 7 71
-66 63 -78 -3 -7 -3 -9 2 -5 4 4 14 3 22 -3 47 -39 -23 54 -170 226 -68 79
-87 96 -87 77z"/>
<path d="M1131 1602 c19 -23 35 -37 37 -32 4 11 -27 48 -52 62 -12 6 -6 -5 15
-30z"/>
<path d="M1335 1555 c-55 -49 -50 -63 5 -15 36 30 60 38 60 19 0 -5 5 -7 10
-4 6 3 10 1 10 -5 0 -12 54 -82 105 -136 17 -17 46 -51 65 -74 19 -24 42 -51
50 -60 50 -54 56 -64 37 -57 -11 4 -16 3 -12 -3 3 -6 12 -10 20 -10 12 0 31
-19 75 -79 9 -11 30 -36 48 -55 17 -19 26 -36 20 -38 -6 -2 -11 -15 -12 -28
-1 -17 -7 -25 -19 -24 -9 1 -15 -1 -12 -5 2 -4 -14 -16 -36 -25 -40 -18 -41
-18 -61 4 -26 28 -35 18 -11 -14 10 -14 28 -26 40 -26 24 0 117 69 133 101 12
22 14 20 -60 104 -19 22 -53 62 -75 89 -72 89 -165 201 -188 226 -13 14 -47
55 -77 93 -29 37 -56 67 -59 67 -3 0 -28 -21 -56 -45z"/>
<path d="M1275 1490 c-3 -5 -1 -10 4 -10 6 0 11 5 11 10 0 6 -2 10 -4 10 -3 0
-8 -4 -11 -10z"/>
<path d="M1250 1466 c0 -2 14 -19 31 -37 32 -35 33 -33 10 14 -8 15 -20 27
-28 27 -7 0 -13 -2 -13 -4z"/>
<path d="M1380 1315 c0 -9 42 -68 54 -77 17 -11 20 0 5 18 -7 9 -18 25 -24 37
-10 20 -35 36 -35 22z"/>
<path d="M1560 1246 c0 -2 8 -10 18 -17 15 -13 16 -12 3 4 -13 16 -21 21 -21
13z"/>
<path d="M1533 1146 c-9 -11 -9 -18 1 -31 7 -10 18 -15 23 -12 6 4 10 -1 9
-10 0 -9 5 -18 12 -20 8 -3 10 1 5 14 -10 28 -24 43 -35 37 -6 -4 -8 2 -3 15
7 24 5 26 -12 7z"/>
<path d="M1605 1113 c11 -12 18 -14 26 -6 8 8 7 13 -2 18 -8 5 -10 4 -5 -3 9
-15 -6 -16 -22 -2 -7 5 -5 2 3 -7z"/>
<path d="M766 1758 c3 -5 10 -6 15 -3 13 9 11 12 -6 12 -8 0 -12 -4 -9 -9z"/>
<path d="M1046 1427 c3 -10 9 -15 12 -12 3 3 0 11 -7 18 -10 9 -11 8 -5 -6z"/>
<path d="M1536 862 c-3 -5 1 -9 9 -9 8 0 12 4 9 9 -3 4 -7 8 -9 8 -2 0 -6 -4
-9 -8z"/>
<path d="M1876 603 c-6 -14 -5 -15 5 -6 7 7 10 15 7 18 -3 3 -9 -2 -12 -12z"/>
<path d="M2224 319 c-3 -6 -2 -15 3 -20 5 -5 9 -1 9 11 0 23 -2 24 -12 9z"/>
</g>
</svg>
